<?xml version="1.0" encoding="UTF-8"?>
<svg xmlns="http://www.w3.org/2000/svg">
  <symbol id="bolt" viewBox="0 0 16 16">
    <path d="M9 0H5v6H2v4h4v6l8-9h-4l3-7H9z"/>
  </symbol>
  <symbol id="heart" viewBox="0 0 16 16">
    <path d="M2 2h4v2h4V2h4v2h2v6h-2v2h-2v2H8v2H6v-2H4v-2H2v-2H0V4h2V2z"/>
  </symbol>
  <symbol id="gear" viewBox="0 0 16 16">
    <path d="M6 0h4v2h2V0h2v4h2v4h-2v2h2v4h-4v2H8v-2H6v2H2v-4H0V8h2V6H0V2h4v2h2V0zm0 6v4h4V6H6z"/>
  </symbol>
  <symbol id="gem" viewBox="0 0 16 16">
    <path d="M4 0h8l4 5v3l-6 8H6L0 8V5l4-5zm1 3L3 6l5 7 5-7-2-3H5z"/>
  </symbol>
  <symbol id="flask" viewBox="0 0 16 16">
    <path d="M5 0h6v2h-1v4l4 6v4H2v-4l4-6V2H5V0zm2 8-2 4v1h6v-1L9 8H7z"/>
  </symbol>
  <symbol id="star" viewBox="0 0 16 16">
    <path d="M6 0h4v4h4v2h2v4h-5v6H5v-6H0V6h2V4h4V0z"/>
  </symbol>
</svg>
